# xmcd
#
# Track frame offsets:
#	150
#	13550
#	31115
#	44535
#	58285
#	73877
#	92067
#	106362
#	120180
#	136162
#
# Disc length: 2105 seconds
# Revision: 0
# Processed by: cddbd v1.5.2PL0 Copyright (c) Steve Scherf et al.
# Submitted via: dBpowerAMP V12.0
#
DISCID=8208370a
DTITLE=Dave Alexander - Swingin' Into Christmas
DYEAR=1999
DGENRE=Country
TTITLE0=Jingle Bells
TTITLE1=Let It Snow
TTITLE2=Santa Claus Is Coming To Town
TTITLE3=Silver Bells
TTITLE4=Rudolf The Red Nosed Reindeer
TTITLE5=White Christmas
TTITLE6=Frosty The Snow Man
TTITLE7=Silent Night
TTITLE8=I`ll Be Home For Christmas
TTITLE9=The Christmas Song
EXTD=
EXTT0=
EXTT1=
EXTT2=
EXTT3=
EXTT4=
EXTT5=
EXTT6=
EXTT7=
EXTT8=
EXTT9=
PLAYORDER=
